<mxfile host="app.diagrams.net" modified="2023-09-03T01:50:39.134Z" agent="Mozilla/5.0 (Macintosh; Intel Mac OS X 10_15_7) AppleWebKit/537.36 (KHTML, like Gecko) Chrome/116.0.0.0 Safari/537.36" version="21.7.2" etag="AGT1rZatdchKljm96NFV" type="github">
  <diagram name="第 1 页" id="JdMYTpr1Ri4gSzPOUvWq">
    <mxGraphModel>
      <root>
        <mxCell id="0" />
        <mxCell id="1" parent="0" />
      </root>
    </mxGraphModel>
  </diagram>
</mxfile>
